<svg width="42" height="30" viewBox="0 0 42 30" fill="none" xmlns="http://www.w3.org/2000/svg">
<path id="image 34 (Traced)" fill-rule="evenodd" clip-rule="evenodd" d="M0.0984298 0.403772C-0.0201865 0.595562 0.0646827 0.971459 0.286545 1.2391C0.604637 1.62234 1.67519 1.72559 5.32724 1.72559C9.5189 1.72559 10.0284 1.78974 10.6326 2.39385C11.4782 3.23954 11.4782 3.88708 10.6326 4.73276C10.0284 5.33687 9.5189 5.40102 5.32724 5.40102C1.67519 5.40102 0.604637 5.50427 0.286545 5.88752C-0.528733 6.8702 0.271509 7.07168 4.98709 7.07168C9.50353 7.07168 9.68797 7.09908 10.4805 7.89197C11.4679 8.87899 11.4866 9.10686 10.663 10.1253C10.0572 10.8741 9.77418 10.9225 5.09301 11.0812C1.72464 11.1952 0.119814 11.3736 0.0306013 11.6432C-0.241047 12.4639 1.26354 12.7262 5.84146 12.656C9.63785 12.5979 10.6613 12.4766 11.3927 11.9971C13.2334 10.7902 13.7193 8.46066 12.4288 7.02824C11.9948 6.54642 12.0202 6.32556 12.6507 5.11601C13.2742 3.92016 13.3136 3.59772 12.9661 2.54421C12.2564 0.394082 11.2313 0.0576125 5.38972 0.056276C2.22283 0.0552736 0.23275 0.186253 0.0984298 0.403772ZM15.7869 1.1823C14.2769 2.69223 14.2198 4.24961 15.6171 5.81334L16.5918 6.90461L20.5793 7.07168C24.8 7.24843 25.6728 7.55683 25.6634 8.86662C25.65 10.7027 24.5407 11.0812 19.1749 11.0812C14.8997 11.0812 14.6421 11.1183 14.6421 11.7345C14.6421 12.6527 16.1942 12.8772 21.0668 12.6637C25.3934 12.4739 26.2966 12.1368 27.3224 10.3298C27.995 9.14529 27.4687 7.18896 26.2298 6.26843C25.4329 5.67601 24.7128 5.55071 21.5519 5.45549C17.5417 5.33487 16.6469 4.98971 16.6469 3.56331C16.6469 2.01762 17.4859 1.75165 22.677 1.65175C27.2522 1.56354 27.5061 1.52344 27.5061 0.890265C27.5061 0.254081 27.2525 0.217661 22.2189 0.129785L16.9316 0.0375648L15.7869 1.1823ZM30.5989 0.641338C28.7869 1.76468 28.3151 4.01772 29.5878 5.46885C30.0338 5.97707 30.0088 6.1996 29.3525 7.55483C28.6292 9.04939 28.6271 9.09016 29.2316 10.3271C30.099 12.1023 31.1198 12.4605 35.8063 12.6336C40.0721 12.7913 41.8737 12.5217 41.8737 11.7254C41.8737 11.3409 40.9111 11.2159 36.9149 11.0812C32.2057 10.9225 31.9243 10.8744 31.3182 10.1253C30.5273 9.14729 30.5273 9.00596 31.3182 8.02762C31.9237 7.2785 32.205 7.23039 36.9149 7.07168C41.5954 6.91397 41.8737 6.86719 41.8737 6.23635C41.8737 5.6025 41.6201 5.56341 36.9627 5.47587C32.1529 5.38532 32.0376 5.36594 31.3847 4.53563C31.0125 4.06216 30.804 3.43868 30.9129 3.12426C31.3376 1.89733 32.0423 1.72559 36.675 1.72058C41.3418 1.71523 42.2867 1.51208 41.9329 0.589882C41.6195 -0.226398 31.9274 -0.182627 30.5989 0.641338ZM4.95234 16.4664C1.25352 17.5787 -0.85451 21.444 0.453944 24.7144C1.9876 28.5472 7.03598 30.2099 10.9486 28.1703L12.3032 27.4643V28.2826C12.3032 29.1858 13.2675 29.8948 13.9351 29.4825C14.2559 29.284 14.3344 28.1045 14.2512 24.7171C14.1449 20.3774 14.1072 20.1709 13.2027 18.9864C11.4859 16.7381 7.79612 15.611 4.95234 16.4664ZM18.1505 16.5573C15.0488 17.9399 14.8413 21.3504 17.7509 23.1246C18.6393 23.6663 19.4409 23.7759 22.5196 23.7769C25.9551 23.7782 26.2722 23.8337 26.9468 24.5514C27.8754 25.5401 27.864 26.1555 26.9 27.0614C26.1803 27.7373 25.7917 27.7881 21.3033 27.7928C16.3656 27.7981 15.3956 27.9939 15.7488 28.9138C15.9152 29.3478 16.7197 29.4551 20.3915 29.5323C22.8343 29.5834 25.5097 29.5139 26.3367 29.3776C30.0836 28.7601 30.9597 24.3085 27.6695 22.6067C27.0019 22.2616 25.6741 22.1075 23.3679 22.1075C19.6187 22.1075 18.4295 21.7931 18.0138 20.6925C17.7225 19.92 18.0847 18.8214 18.7853 18.3536C18.9875 18.2186 21.1827 18.104 23.6636 18.0986C29.0171 18.087 29.7518 17.9476 29.6118 16.9686C29.5146 16.2857 29.3265 16.2576 24.3319 16.1854C20.591 16.1313 18.8745 16.2349 18.1505 16.5573ZM31.2374 16.3161C31.1147 16.4384 31.0145 18.9343 31.0145 21.8626V27.1863L32.1506 28.3224L33.2866 29.4584H37.4769C41.71 29.4584 42.4946 29.2382 41.6947 28.2743C41.3896 27.9067 40.4607 27.7878 37.8976 27.7878C32.9 27.7878 33.0193 27.9338 33.0193 21.8212C33.0193 18.4354 32.894 16.7698 32.6183 16.4942C32.1746 16.0504 31.5795 15.9736 31.2374 16.3161ZM10.0963 18.7081C13.316 20.5699 13.3818 24.5009 10.2276 26.5461C6.00986 29.281 0.229409 25.0582 2.41228 20.8372C3.82766 18.1 7.35507 17.1227 10.0963 18.7081ZM4.24131 20.6875C3.82599 21.2174 3.83768 21.2291 4.36761 20.8138C4.68905 20.5615 4.95234 20.2982 4.95234 20.2291C4.95234 19.9541 4.67802 20.1308 4.24131 20.6875ZM6.02924 21.2913C5.6206 21.5773 5.28647 22.1553 5.28647 22.576C5.28647 24.1701 7.62104 25.0713 8.77112 23.9215C9.38425 23.3081 9.46678 21.9184 8.91012 21.5746C8.68625 21.4359 8.61474 21.482 8.73937 21.6839C8.99432 22.0962 8.43064 22.6007 7.34171 22.9348C6.63736 23.1514 6.58089 23.0956 6.79073 22.3912C6.91937 21.9595 7.26385 21.4186 7.55588 21.1887C8.03002 20.8161 8.01632 20.771 7.42958 20.771C7.06772 20.771 6.43755 21.0052 6.02924 21.2913Z" fill="#303236"/>
</svg>
