<svg width="20" height="19" viewBox="0 0 20 19" fill="none" xmlns="http://www.w3.org/2000/svg">
<path d="M16.8222 3.05219C15.0069 1.25462 12.5547 0.247386 10 0.250005H9.89969C7.33125 0.276432 4.87699 1.31532 3.07015 3.14094C1.26331 4.96656 0.249864 7.43143 0.25 10C0.25 14.0313 2.74187 17.4119 6.7525 18.8284C7.20485 18.9879 7.68885 19.0366 8.16391 18.9704C8.63897 18.9043 9.09123 18.7252 9.48278 18.4481C9.87432 18.1711 10.1937 17.8042 10.4142 17.3782C10.6347 16.9523 10.7499 16.4797 10.75 16C10.75 15.6022 10.908 15.2207 11.1893 14.9393C11.4706 14.658 11.8522 14.5 12.25 14.5H16.5822C17.2627 14.5033 17.9239 14.2737 18.4559 13.8495C18.988 13.4252 19.3589 12.8317 19.5072 12.1675C19.6748 11.4294 19.7563 10.6744 19.75 9.91751C19.7404 8.63638 19.4767 7.36988 18.9742 6.19141C18.4716 5.01294 17.7401 3.94592 16.8222 3.05219ZM18.0409 11.8375C17.9664 12.1684 17.7813 12.464 17.516 12.6753C17.2508 12.8867 16.9214 13.0012 16.5822 13H12.25C11.4543 13 10.6913 13.3161 10.1287 13.8787C9.56607 14.4413 9.25 15.2044 9.25 16C9.24965 16.2396 9.19192 16.4756 9.08163 16.6883C8.97134 16.901 8.8117 17.0842 8.61609 17.2225C8.42047 17.3609 8.19456 17.4503 7.95726 17.4834C7.71997 17.5166 7.4782 17.4923 7.25219 17.4128C3.85844 16.2156 1.75 13.375 1.75 10C1.74988 7.82667 2.60736 5.74108 4.13613 4.19633C5.6649 2.65158 7.74147 1.77248 9.91469 1.75001H9.99906C12.1724 1.75845 14.2553 2.62073 15.7986 4.15091C17.3419 5.68109 18.222 7.75654 18.2491 9.92969C18.2546 10.5714 18.1861 11.2116 18.0447 11.8375H18.0409ZM11.125 5.12501C11.125 5.34751 11.059 5.56502 10.9354 5.75002C10.8118 5.93503 10.6361 6.07922 10.4305 6.16437C10.225 6.24952 9.99875 6.2718 9.78052 6.22839C9.56229 6.18498 9.36184 6.07783 9.2045 5.9205C9.04717 5.76317 8.94002 5.56271 8.89662 5.34448C8.85321 5.12625 8.87549 4.90005 8.96064 4.69449C9.04578 4.48892 9.18998 4.31322 9.37498 4.1896C9.55999 4.06599 9.7775 4.00001 10 4.00001C10.2984 4.00001 10.5845 4.11853 10.7955 4.32951C11.0065 4.54049 11.125 4.82664 11.125 5.12501ZM7 7.37501C7 7.59751 6.93402 7.81502 6.8104 8.00002C6.68679 8.18503 6.51109 8.32922 6.30552 8.41437C6.09995 8.49952 5.87375 8.5218 5.65552 8.47839C5.43729 8.43498 5.23684 8.32784 5.0795 8.1705C4.92217 8.01317 4.81502 7.81271 4.77162 7.59448C4.72821 7.37625 4.75049 7.15005 4.83564 6.94449C4.92078 6.73892 5.06498 6.56322 5.24998 6.4396C5.43499 6.31599 5.6525 6.25001 5.875 6.25001C6.17337 6.25001 6.45952 6.36853 6.67049 6.57951C6.88147 6.79049 7 7.07664 7 7.37501ZM7 12.625C7 12.8475 6.93402 13.065 6.8104 13.25C6.68679 13.435 6.51109 13.5792 6.30552 13.6644C6.09995 13.7495 5.87375 13.7718 5.65552 13.7284C5.43729 13.685 5.23684 13.5778 5.0795 13.4205C4.92217 13.2632 4.81502 13.0627 4.77162 12.8445C4.72821 12.6263 4.75049 12.4001 4.83564 12.1945C4.92078 11.9889 5.06498 11.8132 5.24998 11.6896C5.43499 11.566 5.6525 11.5 5.875 11.5C6.17337 11.5 6.45952 11.6185 6.67049 11.8295C6.88147 12.0405 7 12.3266 7 12.625ZM15.25 7.37501C15.25 7.59751 15.184 7.81502 15.0604 8.00002C14.9368 8.18503 14.7611 8.32922 14.5555 8.41437C14.3499 8.49952 14.1238 8.5218 13.9055 8.47839C13.6873 8.43498 13.4868 8.32784 13.3295 8.1705C13.1722 8.01317 13.065 7.81271 13.0216 7.59448C12.9782 7.37625 13.0005 7.15005 13.0856 6.94449C13.1708 6.73892 13.315 6.56322 13.5 6.4396C13.685 6.31599 13.9025 6.25001 14.125 6.25001C14.4234 6.25001 14.7095 6.36853 14.9205 6.57951C15.1315 6.79049 15.25 7.07664 15.25 7.37501Z" fill="#303236"/>
</svg>
