<svg width="20" height="20" viewBox="0 0 20 20" fill="none" xmlns="http://www.w3.org/2000/svg">
<path d="M7.37489 8.91531C7.48893 8.84947 7.58363 8.75477 7.64945 8.64072C7.71528 8.52667 7.74992 8.39731 7.74989 8.26562V1.51562C7.74922 1.39605 7.71997 1.27837 7.66458 1.1724C7.60919 1.06643 7.52926 0.975234 7.43147 0.906428C7.33367 0.837622 7.22084 0.793197 7.10239 0.776858C6.98393 0.760519 6.86329 0.772739 6.75052 0.8125C4.56143 1.58726 2.7205 3.11748 1.55866 5.12807C0.396815 7.13865 -0.00973967 9.49774 0.412081 11.7812C0.433945 11.8993 0.483846 12.0104 0.557586 12.1052C0.631326 12.2 0.72675 12.2757 0.835831 12.3259C0.934133 12.3719 1.04137 12.3956 1.14989 12.3953C1.28153 12.3954 1.41086 12.3608 1.52489 12.295L7.37489 8.91531ZM6.24989 2.65188V7.8325L1.76114 10.4228C1.74989 10.2812 1.74989 10.1388 1.74989 10C1.75122 8.47971 2.17204 6.98928 2.96601 5.69279C3.75998 4.3963 4.89631 3.34404 6.24989 2.65188ZM18.4693 5.17375C18.4608 5.15687 18.4524 5.13906 18.4421 5.12219C18.4318 5.10531 18.4233 5.09125 18.413 5.07625C17.5534 3.60794 16.3247 2.39001 14.8488 1.54338C13.373 0.696751 11.7013 0.250868 9.99989 0.25C9.80098 0.25 9.61022 0.329018 9.46956 0.46967C9.32891 0.610322 9.24989 0.801088 9.24989 1V9.60906L1.86146 13.9122C1.77572 13.9619 1.70068 14.0281 1.64068 14.107C1.58068 14.1858 1.5369 14.2758 1.51188 14.3717C1.48687 14.4676 1.4811 14.5675 1.49492 14.6656C1.50874 14.7638 1.54187 14.8582 1.59239 14.9434C2.6764 16.7894 4.33777 18.2272 6.32013 19.0351C8.30249 19.8431 10.4956 19.9761 12.5611 19.4138C14.6266 18.8514 16.4496 17.625 17.7489 15.9236C19.0481 14.2223 19.7513 12.1407 19.7499 10C19.752 8.30699 19.3105 6.64297 18.4693 5.17375ZM10.7499 1.78375C11.9394 1.89324 13.091 2.25959 14.1251 2.85749C15.1592 3.4554 16.0512 4.27063 16.7396 5.24688L10.7499 8.73531V1.78375ZM9.99989 18.25C8.6906 18.2466 7.4007 17.9333 6.23578 17.3356C5.07087 16.7379 4.06404 15.8729 3.29771 14.8113L10.3665 10.6947L10.3871 10.6816L17.4905 6.54437C18.0703 7.80132 18.3245 9.18395 18.2297 10.5649C18.135 11.9459 17.6942 13.2808 16.9481 14.4468C16.202 15.6127 15.1745 16.5722 13.9603 17.2368C12.7461 17.9014 11.3841 18.2499 9.99989 18.25Z" fill="#303236"/>
</svg>
