<svg width="76" height="74" viewBox="0 0 76 74" fill="none" xmlns="http://www.w3.org/2000/svg">
<g id="Group 3375856">
<path id="Vector" d="M73.2038 59.026L59.7272 45.721C59.0712 45.0682 58.2927 44.5513 57.4366 44.1998C56.5804 43.8484 55.6633 43.6695 54.7378 43.6732H54.6905C53.758 43.6759 52.8353 43.8635 51.9758 44.2251C51.1164 44.5868 50.3372 45.1153 49.6833 45.7802C46.67 48.8297 44.9561 52.9287 44.9021 57.2156C44.848 61.5024 46.4579 65.6434 49.3933 68.768C49.5354 68.9219 49.6833 69.0698 49.8313 69.2178C50.6509 70.0325 51.5557 70.7567 52.5302 71.3781C55.1944 73.0995 58.3012 74.0103 61.4732 74H61.5738C63.751 73.9926 65.905 73.5536 67.9115 72.7083C69.9179 71.8631 71.7368 70.6284 73.263 69.0758C74.5855 67.734 75.322 65.9226 75.3109 64.0386C75.2998 62.1547 74.542 60.3521 73.2038 59.026ZM72.4226 68.2412C69.9204 70.7619 66.6259 72.343 63.0941 72.7182C59.5623 73.0933 56.0091 72.2396 53.0333 70.3009C52.1821 69.7376 51.3873 69.0934 50.6599 68.3773C47.7561 65.5094 46.1104 61.6055 46.0848 57.5242C46.0593 53.443 47.6561 49.5187 50.5238 46.6147C51.0689 46.0592 51.719 45.6177 52.4364 45.3159C53.1538 45.0141 53.924 44.8581 54.7023 44.8569H54.7378C55.5084 44.8542 56.2719 45.0033 56.9848 45.2958C57.6977 45.5883 58.346 46.0183 58.8926 46.5614L72.3693 59.8723C73.4849 60.9757 74.1172 62.4767 74.1271 64.0457C74.1371 65.6148 73.5241 67.1237 72.4226 68.2412Z" fill="#EBEBEB"/>
<path id="Vector_2" d="M28.9861 15.3588L15.5095 2.04785C14.1829 0.73174 12.3887 -0.00468312 10.5201 2.24122e-05H10.4787C9.54494 0.00377831 8.62119 0.192422 7.76077 0.555071C6.90035 0.917721 6.12029 1.4472 5.46558 2.11293C2.97445 4.64293 1.35918 7.90433 0.856457 11.4191C0.353731 14.934 0.989999 18.5174 2.67202 21.6443L2.67795 21.6502C3.37184 22.9292 4.23372 24.1096 5.24067 25.1599C5.35313 25.2901 5.48334 25.4204 5.61355 25.5506C8.70835 28.6225 12.8949 30.3422 17.2554 30.3328H17.362C19.5394 30.3237 21.6935 29.8833 23.6998 29.0371C25.7061 28.1909 27.5249 26.9556 29.0512 25.4026C29.7065 24.7389 30.2246 23.9526 30.576 23.0886C30.9273 22.2246 31.1051 21.2998 31.099 20.3672C31.093 19.4345 30.9032 18.5121 30.5407 17.6528C30.1782 16.7934 29.6499 16.014 28.9861 15.3588ZM28.2048 24.574C26.7882 26.0152 25.1001 27.1615 23.2381 27.9467C21.376 28.7319 19.3769 29.1406 17.3561 29.1491H17.2554C14.2206 29.1479 11.2538 28.2494 8.72825 26.5666C6.2027 24.8837 4.23115 22.4917 3.06152 19.6912C1.89188 16.8908 1.5764 13.8071 2.15476 10.8278C2.73312 7.84858 4.17946 5.10687 6.31194 2.94749C7.41535 1.83193 8.91633 1.19976 10.4854 1.18977C12.0544 1.17979 13.5633 1.79278 14.6808 2.89421L28.1575 16.1992C29.2724 17.3045 29.9035 18.8069 29.9124 20.3768C29.9212 21.9468 29.3072 23.4562 28.2048 24.574Z" fill="#EBEBEB"/>
<path id="Vector_3" d="M74.0652 63.209L59.2076 48.5347C58.2333 47.5746 56.918 47.0402 55.5502 47.0487C54.1824 47.0572 52.8738 47.6079 51.9115 48.58C50.7077 49.7961 49.7555 51.2376 49.1091 52.8219C48.4628 54.4063 48.1351 56.1026 48.1448 57.8137C48.1544 59.5248 48.5013 61.2173 49.1654 62.7943C49.8296 64.3712 50.7982 65.8018 52.0156 67.0043C53.2331 68.2067 54.6756 69.1574 56.2607 69.802C57.8458 70.4465 59.5424 70.7723 61.2535 70.7608C62.9646 70.7492 64.6567 70.4005 66.2329 69.7345C67.8092 69.0686 69.2387 68.0985 70.4398 66.8797L74.0652 63.209Z" fill="white"/>
<path id="Vector_4" d="M29.8501 19.5393L14.9926 4.86505C14.0183 3.90495 12.703 3.37052 11.3351 3.37901C9.96733 3.38749 8.65874 3.93821 7.69646 4.91033C6.49267 6.12644 5.54042 7.5679 4.89409 9.15229C4.24776 10.7367 3.92005 12.4329 3.92972 14.144C3.93938 15.8552 4.28622 17.5476 4.95041 19.1246C5.61459 20.7016 6.58312 22.1322 7.80057 23.3346C9.01802 24.537 10.4605 25.4877 12.0456 26.1323C13.6307 26.7768 15.3274 27.1027 17.0385 27.0911C18.7496 27.0795 20.4416 26.7308 22.0179 26.0649C23.5941 25.3989 25.0236 24.4288 26.2247 23.21L29.8501 19.5393Z" fill="white"/>
<path id="Vector_5" d="M57.7386 72.3487L57.3835 73.2838C55.7145 72.6505 54.0967 72.0153 52.5303 71.378C24.7839 60.0558 11.5381 46.804 2.67798 21.65L2.67206 21.6441C2.25184 20.4604 1.84345 19.249 1.44691 18.0101L2.38205 17.7083C2.69474 18.8998 3.15188 20.0486 3.74332 21.1292C4.22865 22.5082 4.7278 23.8517 5.24075 25.1598C13.5682 46.3897 25.8493 58.5229 49.3934 68.7679C50.5772 69.2829 51.7905 69.7939 53.0334 70.3009C54.4766 71.2412 56.067 71.9333 57.7386 72.3487Z" fill="#EBEBEB"/>
<path id="Vector_6" d="M15.2624 29.2555L14.4304 30.0979L45.1704 60.459L46.0024 59.6166L15.2624 29.2555Z" fill="#EBEBEB"/>
</g>
</svg>
