<svg width="116" height="116" viewBox="0 0 116 116" fill="none" xmlns="http://www.w3.org/2000/svg">
<g id="Vector" filter="url(#filter0_d_1409_64431)">
<path d="M94 52C94 44.8799 91.8886 37.9197 87.9329 31.9995C83.9772 26.0793 78.3547 21.4651 71.7766 18.7404C65.1985 16.0156 57.9601 15.3027 50.9768 16.6917C43.9934 18.0808 37.5789 21.5095 32.5442 26.5442C27.5095 31.5789 24.0808 37.9934 22.6917 44.9768C21.3027 51.9601 22.0156 59.1985 24.7404 65.7766C27.4651 72.3547 32.0793 77.9772 37.9995 81.9329C43.9197 85.8886 50.8799 88 58 88C67.5447 87.9899 76.6956 84.1938 83.4447 77.4447C90.1938 70.6956 93.9899 61.5447 94 52ZM71.0362 51.19C70.779 51.4475 70.4736 51.6517 70.1374 51.7911C69.8012 51.9305 69.4408 52.0022 69.0769 52.0022C68.713 52.0022 68.3527 51.9305 68.0165 51.7911C67.6803 51.6517 67.3749 51.4475 67.1177 51.19L60.7692 44.8381V65.8462C60.7692 66.5806 60.4775 67.285 59.9582 67.8043C59.4388 68.3236 58.7345 68.6154 58 68.6154C57.2656 68.6154 56.5612 68.3236 56.0419 67.8043C55.5225 67.285 55.2308 66.5806 55.2308 65.8462V44.8381L48.8823 51.19C48.3627 51.7096 47.6579 52.0015 46.9231 52.0015C46.1882 52.0015 45.4835 51.7096 44.9639 51.19C44.4442 50.6704 44.1523 49.9656 44.1523 49.2308C44.1523 48.4959 44.4442 47.7912 44.9639 47.2715L56.0408 36.1946C56.298 35.9372 56.6034 35.7329 56.9396 35.5935C57.2757 35.4542 57.6361 35.3824 58 35.3824C58.3639 35.3824 58.7243 35.4542 59.0605 35.5935C59.3966 35.7329 59.7021 35.9372 59.9592 36.1946L71.0362 47.2715C71.2936 47.5287 71.4979 47.8341 71.6372 48.1703C71.7766 48.5065 71.8483 48.8669 71.8483 49.2308C71.8483 49.5947 71.7766 49.955 71.6372 50.2912C71.4979 50.6274 71.2936 50.9328 71.0362 51.19Z" fill="url(#paint0_linear_1409_64431)"/>
</g>
<defs>
<filter id="filter0_d_1409_64431" x="0" y="0" width="116" height="116" filterUnits="userSpaceOnUse" color-interpolation-filters="sRGB">
<feFlood flood-opacity="0" result="BackgroundImageFix"/>
<feColorMatrix in="SourceAlpha" type="matrix" values="0 0 0 0 0 0 0 0 0 0 0 0 0 0 0 0 0 0 127 0" result="hardAlpha"/>
<feOffset dy="6"/>
<feGaussianBlur stdDeviation="11"/>
<feComposite in2="hardAlpha" operator="out"/>
<feColorMatrix type="matrix" values="0 0 0 0 0 0 0 0 0 0 0 0 0 0 0 0 0 0 0.2 0"/>
<feBlend mode="normal" in2="BackgroundImageFix" result="effect1_dropShadow_1409_64431"/>
<feBlend mode="normal" in="SourceGraphic" in2="effect1_dropShadow_1409_64431" result="shape"/>
</filter>
<linearGradient id="paint0_linear_1409_64431" x1="52.2062" y1="16" x2="86.0411" y2="31.3015" gradientUnits="userSpaceOnUse">
<stop stop-color="#2B70C5"/>
<stop offset="1" stop-color="#2C8AE8"/>
</linearGradient>
</defs>
</svg>
